<svg width="48" height="46" viewBox="0 0 320 410" fill="none" xmlns="http://www.w3.org/2000/svg">
<path fill-rule="evenodd" clip-rule="evenodd" d="M212.841 35.2908C232.262 -2.84318 277.886 0.223787 296.582 14.6828C331.978 42.0568 320.887 82.7818 299.254 80.2618C285.692 78.6808 274.655 45.9848 250.431 64.8088C280.953 159.134 239.211 204.386 183.164 219.971C180.995 220.413 167.038 222.291 165.66 228.058C158.342 258.691 182.396 273.602 196.831 284.218C234.924 312.232 264.875 343.415 261.612 381.656C277.531 380.82 283.783 378.961 289.458 365.561C292.733 357.826 298.083 355.151 297.844 366.287C297.329 390.263 284.182 407.916 260.256 409.066C237.926 409.253 209.841 409.269 183.114 409.246H157.986C154.524 409.246 152.437 407.695 151.574 405.531C150.991 404.068 150.89 402.299 151.239 400.473C151.605 398.559 152.459 396.629 153.766 394.952C156.747 391.125 162.142 388.605 169.604 390.497C171.043 390.856 172.502 389.981 172.863 388.542C173.112 387.545 172.768 386.538 172.055 385.895C159.646 373.495 156.104 361.336 157.921 351.179C158.849 345.991 161.173 341.296 164.418 337.343C167.685 333.364 171.896 330.133 176.57 327.903C185.972 323.418 197.19 323.041 206.248 328.859C207.495 329.66 209.157 329.297 209.958 328.049C210.759 326.801 210.396 325.14 209.148 324.338C198.399 317.434 185.224 317.815 174.257 323.047C168.905 325.601 164.062 329.327 160.277 333.937C156.47 338.574 153.741 344.103 152.644 350.233C150.803 360.521 153.548 372.421 163.518 384.491C157.313 384.806 152.576 387.755 149.539 391.652C147.687 394.029 146.478 396.759 145.96 399.465C145.425 402.261 145.619 405.072 146.59 407.508C146.832 408.114 147.118 408.696 147.45 409.246H109.285C97.0966 409.246 87.7465 399.099 104.073 387.662C88.6345 302.439 124.954 242.023 108.163 225.231C83.8366 222.62 61.3496 216.218 45.0496 207.452C-8.79241 178.492 -6.38046 121.945 11.2705 121.424C52.9485 120.193 38.8796 92.0448 57.1236 58.5298C51.2216 50.5158 51.8726 48.9918 36.7376 58.4408C11.2666 74.3408 11.1726 31.2588 36.9646 11.1918C55.0356 -2.86918 85.4396 -10.0342 97.8906 29.2238C135.966 17.8448 177.685 24.4038 212.841 35.2908Z" fill="#24AAD5"/>
<path fill-rule="evenodd" clip-rule="evenodd" d="M212.84 35.2908C232.261 -2.84317 277.886 0.223794 296.582 14.6828C331.978 42.0568 320.887 82.7818 299.254 80.2618C285.692 78.6808 274.655 45.9848 250.431 64.8088C267.132 116.419 262.196 153.338 245.123 178.749C250.058 148.61 237.477 113.831 167.678 134.929C118.081 149.92 82.8745 123.392 95.2555 72.7198C101.82 45.8528 126.567 22.5208 148.666 23.4318C170.925 24.3498 192.935 29.1268 212.84 35.2908Z" fill="#1D8AC0"/>
<path fill-rule="evenodd" clip-rule="evenodd" d="M44.6735 123.275C56.2845 123.059 66.3595 124.598 66.5095 130.517C66.6135 134.621 60.8455 137.589 56.4375 142.582C51.4335 148.25 49.5085 151.115 48.0685 151.102C40.9415 151.033 29.8515 138.505 29.6785 132.464C29.5055 126.423 33.0635 123.491 44.6735 123.275Z" fill="white"/>
<path fill-rule="evenodd" clip-rule="evenodd" d="M129.557 119.584C142.046 122.34 149.437 105.041 151.338 94.8998C154.191 79.6718 122.178 73.4518 119.15 89.6138C117.25 99.7528 117.067 116.826 129.557 119.584Z" fill="white"/>
<path fill-rule="evenodd" clip-rule="evenodd" d="M65.1595 114.866C74.3785 116.24 79.5215 100.466 80.7515 91.4218C82.5975 77.8418 58.9825 75.0648 57.0245 89.4768C55.7955 98.5208 55.9415 113.493 65.1595 114.866Z" fill="white"/>
</svg>
